<svg xmlns="http://www.w3.org/2000/svg" xmlns:xlink="http://www.w3.org/1999/xlink" width="336" zoomAndPan="magnify" viewBox="0 0 252 143.999998" height="192" preserveAspectRatio="xMidYMid meet" version="1.0"><defs><g/><clipPath id="5c7d85a0ef"><path d="M 89 41 L 106.839844 41 L 106.839844 69 L 89 69 Z M 89 41 " clip-rule="nonzero"/></clipPath><clipPath id="da93e185b0"><rect x="0" width="107" y="0" height="75"/></clipPath></defs><rect x="-25.2" width="302.4" fill="#ffffff" y="-14.4" height="172.799997" fill-opacity="0"/><rect x="-25.2" width="302.4" fill="#73000a" y="-14.4" height="172.799997" fill-opacity="0"/><g transform="matrix(1, 0, 0, 1, 59, 13)"><g clip-path="url(#da93e185b0)"><g fill="#bfbfbf" fill-opacity="1"><g transform="translate(0.730541, 35.876726)"><g><path d="M 9.722656 -6.046875 L 9.722656 -27.570312 C 9.722656 -28.121094 9.898438 -28.574219 10.25 -28.925781 C 10.601562 -29.277344 11.054688 -29.453125 11.605469 -29.453125 L 15.261719 -29.453125 C 15.8125 -29.453125 16.265625 -29.277344 16.617188 -28.925781 C 16.96875 -28.574219 17.144531 -28.121094 17.144531 -27.570312 L 17.144531 -5.0625 C 17.144531 -3.058594 16.582031 -1.492188 15.457031 -0.367188 C 14.332031 0.757812 12.765625 1.320312 10.761719 1.320312 L 6.824219 1.320312 C 4.816406 1.320312 3.253906 0.757812 2.128906 -0.367188 C 1.003906 -1.492188 0.441406 -3.058594 0.441406 -5.0625 L 0.441406 -8.722656 C 0.441406 -9.273438 0.613281 -9.726562 0.964844 -10.074219 C 1.316406 -10.425781 1.769531 -10.601562 2.320312 -10.601562 L 5.835938 -10.601562 C 6.390625 -10.601562 6.839844 -10.425781 7.191406 -10.074219 C 7.542969 -9.726562 7.71875 -9.273438 7.71875 -8.722656 L 7.71875 -6.046875 C 7.71875 -5.957031 7.726562 -5.890625 7.738281 -5.851562 C 7.734375 -5.871094 7.714844 -5.898438 7.683594 -5.925781 C 7.65625 -5.957031 7.628906 -5.972656 7.609375 -5.980469 C 7.648438 -5.96875 7.714844 -5.960938 7.808594 -5.960938 L 9.636719 -5.960938 C 9.726562 -5.960938 9.792969 -5.96875 9.835938 -5.980469 C 9.8125 -5.972656 9.789062 -5.957031 9.757812 -5.925781 C 9.730469 -5.898438 9.710938 -5.871094 9.703125 -5.851562 C 9.71875 -5.890625 9.722656 -5.957031 9.722656 -6.046875 Z M 12.363281 -6.046875 C 12.363281 -5.214844 12.117188 -4.554688 11.625 -4.0625 C 11.132812 -3.570312 10.46875 -3.324219 9.636719 -3.324219 L 7.808594 -3.324219 C 6.972656 -3.324219 6.3125 -3.570312 5.820312 -4.0625 C 5.328125 -4.554688 5.082031 -5.214844 5.082031 -6.046875 L 5.082031 -8.722656 C 5.082031 -8.671875 5.09375 -8.617188 5.113281 -8.550781 C 5.15625 -8.425781 5.226562 -8.3125 5.328125 -8.210938 C 5.425781 -8.109375 5.539062 -8.039062 5.667969 -7.996094 C 5.730469 -7.976562 5.789062 -7.964844 5.835938 -7.964844 L 2.320312 -7.964844 C 2.371094 -7.964844 2.425781 -7.976562 2.492188 -7.996094 C 2.617188 -8.039062 2.730469 -8.109375 2.832031 -8.210938 C 2.929688 -8.3125 3.003906 -8.425781 3.042969 -8.550781 C 3.066406 -8.617188 3.078125 -8.671875 3.078125 -8.722656 L 3.078125 -5.0625 C 3.078125 -3.789062 3.382812 -2.84375 3.992188 -2.234375 C 4.601562 -1.625 5.546875 -1.320312 6.824219 -1.320312 L 10.761719 -1.320312 C 12.039062 -1.320312 12.980469 -1.625 13.589844 -2.234375 C 14.203125 -2.84375 14.507812 -3.789062 14.507812 -5.0625 L 14.507812 -27.570312 C 14.507812 -27.523438 14.515625 -27.464844 14.539062 -27.398438 C 14.582031 -27.273438 14.652344 -27.160156 14.753906 -27.0625 C 14.851562 -26.960938 14.964844 -26.890625 15.089844 -26.847656 C 15.15625 -26.824219 15.214844 -26.816406 15.261719 -26.816406 L 11.605469 -26.816406 C 11.652344 -26.816406 11.710938 -26.824219 11.777344 -26.847656 C 11.902344 -26.890625 12.015625 -26.960938 12.117188 -27.0625 C 12.214844 -27.160156 12.285156 -27.273438 12.328125 -27.398438 C 12.351562 -27.464844 12.363281 -27.523438 12.363281 -27.570312 Z M 12.363281 -6.046875 "/></g></g></g><g fill="#bfbfbf" fill-opacity="1"><g transform="translate(20.31843, 35.876726)"><g><path d="M 17.109375 -24.054688 L 17.109375 -20.539062 C 17.109375 -19.988281 16.941406 -19.539062 16.609375 -19.183594 C 16.253906 -18.808594 15.796875 -18.621094 15.226562 -18.621094 L 6.542969 -18.621094 L 6.542969 -19.941406 L 7.859375 -19.941406 L 7.859375 -14.523438 L 6.542969 -14.523438 L 6.542969 -15.84375 L 13.152344 -15.84375 C 13.71875 -15.84375 14.179688 -15.65625 14.535156 -15.277344 C 14.867188 -14.925781 15.035156 -14.472656 15.035156 -13.925781 L 15.035156 -10.445312 C 15.035156 -9.898438 14.867188 -9.445312 14.535156 -9.09375 C 14.179688 -8.714844 13.71875 -8.527344 13.152344 -8.527344 L 6.542969 -8.527344 L 6.542969 -9.847656 L 7.859375 -9.847656 L 7.859375 -4.640625 L 6.542969 -4.640625 L 6.542969 -5.960938 L 15.226562 -5.960938 C 15.777344 -5.960938 16.230469 -5.785156 16.582031 -5.433594 C 16.933594 -5.082031 17.109375 -4.632812 17.109375 -4.078125 L 17.109375 -0.5625 C 17.109375 -0.0117188 16.933594 0.441406 16.582031 0.792969 C 16.230469 1.144531 15.777344 1.320312 15.226562 1.320312 L 2.285156 1.320312 C 1.730469 1.320312 1.277344 1.132812 0.929688 0.761719 C 0.601562 0.414062 0.441406 -0.0273438 0.441406 -0.5625 L 0.441406 -24.054688 C 0.441406 -24.589844 0.601562 -25.03125 0.929688 -25.378906 C 1.277344 -25.75 1.730469 -25.9375 2.285156 -25.9375 L 15.226562 -25.9375 C 15.777344 -25.9375 16.230469 -25.761719 16.582031 -25.410156 C 16.933594 -25.058594 17.109375 -24.605469 17.109375 -24.054688 Z M 14.472656 -24.054688 C 14.472656 -24.003906 14.480469 -23.949219 14.503906 -23.882812 C 14.546875 -23.757812 14.617188 -23.644531 14.71875 -23.542969 C 14.816406 -23.445312 14.929688 -23.371094 15.054688 -23.332031 C 15.121094 -23.308594 15.179688 -23.296875 15.226562 -23.296875 L 2.285156 -23.296875 C 2.351562 -23.296875 2.421875 -23.3125 2.496094 -23.339844 C 2.632812 -23.386719 2.75 -23.464844 2.851562 -23.574219 C 2.945312 -23.675781 3.011719 -23.785156 3.050781 -23.90625 C 3.066406 -23.964844 3.078125 -24.015625 3.078125 -24.054688 L 3.078125 -0.5625 C 3.078125 -0.601562 3.066406 -0.652344 3.050781 -0.710938 C 3.011719 -0.832031 2.945312 -0.941406 2.851562 -1.042969 C 2.75 -1.152344 2.632812 -1.230469 2.496094 -1.277344 C 2.421875 -1.304688 2.351562 -1.320312 2.285156 -1.320312 L 15.226562 -1.320312 C 15.179688 -1.320312 15.121094 -1.308594 15.054688 -1.285156 C 14.929688 -1.242188 14.816406 -1.171875 14.71875 -1.074219 C 14.617188 -0.972656 14.546875 -0.859375 14.503906 -0.734375 C 14.480469 -0.667969 14.472656 -0.613281 14.472656 -0.5625 L 14.472656 -4.078125 C 14.472656 -4.03125 14.480469 -3.972656 14.503906 -3.910156 C 14.546875 -3.78125 14.617188 -3.667969 14.71875 -3.570312 C 14.816406 -3.46875 14.929688 -3.398438 15.054688 -3.355469 C 15.121094 -3.335938 15.179688 -3.324219 15.226562 -3.324219 L 5.222656 -3.324219 L 5.222656 -11.164062 L 13.152344 -11.164062 C 13.09375 -11.164062 13.03125 -11.152344 12.957031 -11.128906 C 12.828125 -11.082031 12.714844 -11.003906 12.613281 -10.898438 C 12.523438 -10.804688 12.457031 -10.695312 12.421875 -10.578125 C 12.40625 -10.523438 12.394531 -10.480469 12.394531 -10.445312 L 12.394531 -13.925781 C 12.394531 -13.890625 12.40625 -13.847656 12.421875 -13.792969 C 12.457031 -13.675781 12.523438 -13.566406 12.613281 -13.472656 C 12.714844 -13.367188 12.828125 -13.289062 12.957031 -13.242188 C 13.03125 -13.21875 13.09375 -13.207031 13.152344 -13.207031 L 5.222656 -13.207031 L 5.222656 -21.257812 L 15.226562 -21.257812 C 15.171875 -21.257812 15.105469 -21.246094 15.035156 -21.21875 C 14.902344 -21.175781 14.789062 -21.097656 14.6875 -20.992188 C 14.597656 -20.894531 14.535156 -20.789062 14.496094 -20.671875 C 14.480469 -20.617188 14.472656 -20.574219 14.472656 -20.539062 Z M 14.472656 -24.054688 "/></g></g></g><g fill="#bfbfbf" fill-opacity="1"><g transform="translate(39.871152, 35.876726)"><g><path d="M 17.144531 -24.054688 L 17.144531 -20.539062 C 17.144531 -19.984375 16.96875 -19.535156 16.617188 -19.183594 C 16.265625 -18.832031 15.8125 -18.65625 15.261719 -18.65625 L 6.542969 -18.65625 L 6.542969 -19.976562 L 7.859375 -19.976562 L 7.859375 -13.960938 L 6.542969 -13.960938 L 6.542969 -15.28125 L 13.152344 -15.28125 C 13.703125 -15.28125 14.15625 -15.105469 14.507812 -14.753906 C 14.859375 -14.402344 15.035156 -13.949219 15.035156 -13.398438 L 15.035156 -9.882812 C 15.035156 -9.332031 14.859375 -8.878906 14.507812 -8.527344 C 14.15625 -8.175781 13.703125 -8 13.152344 -8 L 6.542969 -8 L 6.542969 -9.320312 L 7.859375 -9.320312 L 7.859375 -0.5625 C 7.859375 -0.0117188 7.683594 0.441406 7.332031 0.792969 C 6.980469 1.144531 6.53125 1.320312 5.976562 1.320312 L 2.320312 1.320312 C 1.769531 1.320312 1.316406 1.144531 0.964844 0.792969 C 0.613281 0.441406 0.441406 -0.0117188 0.441406 -0.5625 L 0.441406 -24.054688 C 0.441406 -24.605469 0.613281 -25.058594 0.964844 -25.410156 C 1.316406 -25.761719 1.769531 -25.9375 2.320312 -25.9375 L 15.261719 -25.9375 C 15.8125 -25.9375 16.265625 -25.761719 16.617188 -25.410156 C 16.96875 -25.058594 17.144531 -24.605469 17.144531 -24.054688 Z M 14.507812 -24.054688 C 14.507812 -24.003906 14.515625 -23.949219 14.539062 -23.882812 C 14.582031 -23.757812 14.652344 -23.644531 14.753906 -23.542969 C 14.851562 -23.445312 14.964844 -23.371094 15.089844 -23.332031 C 15.15625 -23.308594 15.214844 -23.296875 15.261719 -23.296875 L 2.320312 -23.296875 C 2.371094 -23.296875 2.425781 -23.308594 2.492188 -23.332031 C 2.617188 -23.371094 2.730469 -23.445312 2.832031 -23.542969 C 2.929688 -23.644531 3.003906 -23.757812 3.042969 -23.882812 C 3.066406 -23.949219 3.078125 -24.003906 3.078125 -24.054688 L 3.078125 -0.5625 C 3.078125 -0.613281 3.066406 -0.667969 3.042969 -0.734375 C 3.003906 -0.859375 2.929688 -0.972656 2.832031 -1.074219 C 2.730469 -1.171875 2.617188 -1.242188 2.492188 -1.285156 C 2.425781 -1.308594 2.371094 -1.320312 2.320312 -1.320312 L 5.976562 -1.320312 C 5.929688 -1.320312 5.871094 -1.308594 5.808594 -1.285156 C 5.679688 -1.242188 5.566406 -1.171875 5.46875 -1.074219 C 5.367188 -0.972656 5.296875 -0.859375 5.253906 -0.734375 C 5.234375 -0.667969 5.222656 -0.613281 5.222656 -0.5625 L 5.222656 -10.636719 L 13.152344 -10.636719 C 13.105469 -10.636719 13.046875 -10.628906 12.980469 -10.605469 C 12.855469 -10.5625 12.742188 -10.492188 12.640625 -10.394531 C 12.542969 -10.292969 12.472656 -10.179688 12.429688 -10.054688 C 12.40625 -9.988281 12.394531 -9.929688 12.394531 -9.882812 L 12.394531 -13.398438 C 12.394531 -13.351562 12.40625 -13.292969 12.429688 -13.226562 C 12.472656 -13.101562 12.542969 -12.988281 12.640625 -12.886719 C 12.742188 -12.789062 12.855469 -12.71875 12.980469 -12.675781 C 13.046875 -12.652344 13.105469 -12.644531 13.152344 -12.644531 L 5.222656 -12.644531 L 5.222656 -21.292969 L 15.261719 -21.292969 C 15.214844 -21.292969 15.15625 -21.28125 15.089844 -21.261719 C 14.964844 -21.21875 14.851562 -21.148438 14.753906 -21.046875 C 14.652344 -20.949219 14.582031 -20.835938 14.539062 -20.707031 C 14.515625 -20.644531 14.507812 -20.585938 14.507812 -20.539062 Z M 14.507812 -24.054688 "/></g></g></g><g fill="#bfbfbf" fill-opacity="1"><g transform="translate(59.459041, 35.876726)"><g><path d="M 17.144531 -24.054688 L 17.144531 -20.539062 C 17.144531 -19.984375 16.96875 -19.535156 16.617188 -19.183594 C 16.265625 -18.832031 15.8125 -18.65625 15.261719 -18.65625 L 6.542969 -18.65625 L 6.542969 -19.976562 L 7.859375 -19.976562 L 7.859375 -13.960938 L 6.542969 -13.960938 L 6.542969 -15.28125 L 13.152344 -15.28125 C 13.703125 -15.28125 14.15625 -15.105469 14.507812 -14.753906 C 14.859375 -14.402344 15.035156 -13.949219 15.035156 -13.398438 L 15.035156 -9.882812 C 15.035156 -9.332031 14.859375 -8.878906 14.507812 -8.527344 C 14.15625 -8.175781 13.703125 -8 13.152344 -8 L 6.542969 -8 L 6.542969 -9.320312 L 7.859375 -9.320312 L 7.859375 -0.5625 C 7.859375 -0.0117188 7.683594 0.441406 7.332031 0.792969 C 6.980469 1.144531 6.53125 1.320312 5.976562 1.320312 L 2.320312 1.320312 C 1.769531 1.320312 1.316406 1.144531 0.964844 0.792969 C 0.613281 0.441406 0.441406 -0.0117188 0.441406 -0.5625 L 0.441406 -24.054688 C 0.441406 -24.605469 0.613281 -25.058594 0.964844 -25.410156 C 1.316406 -25.761719 1.769531 -25.9375 2.320312 -25.9375 L 15.261719 -25.9375 C 15.8125 -25.9375 16.265625 -25.761719 16.617188 -25.410156 C 16.96875 -25.058594 17.144531 -24.605469 17.144531 -24.054688 Z M 14.507812 -24.054688 C 14.507812 -24.003906 14.515625 -23.949219 14.539062 -23.882812 C 14.582031 -23.757812 14.652344 -23.644531 14.753906 -23.542969 C 14.851562 -23.445312 14.964844 -23.371094 15.089844 -23.332031 C 15.15625 -23.308594 15.214844 -23.296875 15.261719 -23.296875 L 2.320312 -23.296875 C 2.371094 -23.296875 2.425781 -23.308594 2.492188 -23.332031 C 2.617188 -23.371094 2.730469 -23.445312 2.832031 -23.542969 C 2.929688 -23.644531 3.003906 -23.757812 3.042969 -23.882812 C 3.066406 -23.949219 3.078125 -24.003906 3.078125 -24.054688 L 3.078125 -0.5625 C 3.078125 -0.613281 3.066406 -0.667969 3.042969 -0.734375 C 3.003906 -0.859375 2.929688 -0.972656 2.832031 -1.074219 C 2.730469 -1.171875 2.617188 -1.242188 2.492188 -1.285156 C 2.425781 -1.308594 2.371094 -1.320312 2.320312 -1.320312 L 5.976562 -1.320312 C 5.929688 -1.320312 5.871094 -1.308594 5.808594 -1.285156 C 5.679688 -1.242188 5.566406 -1.171875 5.46875 -1.074219 C 5.367188 -0.972656 5.296875 -0.859375 5.253906 -0.734375 C 5.234375 -0.667969 5.222656 -0.613281 5.222656 -0.5625 L 5.222656 -10.636719 L 13.152344 -10.636719 C 13.105469 -10.636719 13.046875 -10.628906 12.980469 -10.605469 C 12.855469 -10.5625 12.742188 -10.492188 12.640625 -10.394531 C 12.542969 -10.292969 12.472656 -10.179688 12.429688 -10.054688 C 12.40625 -9.988281 12.394531 -9.929688 12.394531 -9.882812 L 12.394531 -13.398438 C 12.394531 -13.351562 12.40625 -13.292969 12.429688 -13.226562 C 12.472656 -13.101562 12.542969 -12.988281 12.640625 -12.886719 C 12.742188 -12.789062 12.855469 -12.71875 12.980469 -12.675781 C 13.046875 -12.652344 13.105469 -12.644531 13.152344 -12.644531 L 5.222656 -12.644531 L 5.222656 -21.292969 L 15.261719 -21.292969 C 15.214844 -21.292969 15.15625 -21.28125 15.089844 -21.261719 C 14.964844 -21.21875 14.851562 -21.148438 14.753906 -21.046875 C 14.652344 -20.949219 14.582031 -20.835938 14.539062 -20.707031 C 14.515625 -20.644531 14.507812 -20.585938 14.507812 -20.539062 Z M 14.507812 -24.054688 "/></g></g></g><g fill="#bfbfbf" fill-opacity="1"><g transform="translate(0.730541, 67.604669)"><g><path d="M 17.53125 -23.070312 L 17.53125 -14.488281 C 17.53125 -13.089844 17.261719 -11.902344 16.722656 -10.933594 C 16.152344 -9.898438 15.300781 -9.132812 14.175781 -8.640625 L 13.644531 -9.847656 L 14.921875 -10.183594 L 17.347656 -0.96875 C 17.519531 -0.34375 17.429688 0.195312 17.078125 0.652344 C 16.730469 1.097656 16.230469 1.320312 15.578125 1.320312 L 11.921875 1.320312 C 11.441406 1.320312 11.03125 1.175781 10.6875 0.894531 C 10.351562 0.617188 10.132812 0.246094 10.035156 -0.214844 L 11.324219 -0.492188 L 10.046875 -0.15625 L 7.691406 -9.089844 L 8.96875 -9.425781 L 8.96875 -8.105469 L 6.542969 -8.105469 L 6.542969 -9.425781 L 7.859375 -9.425781 L 7.859375 -0.5625 C 7.859375 -0.0117188 7.683594 0.441406 7.332031 0.792969 C 6.980469 1.144531 6.53125 1.320312 5.976562 1.320312 L 2.320312 1.320312 C 1.769531 1.320312 1.316406 1.144531 0.964844 0.792969 C 0.613281 0.441406 0.441406 -0.0117188 0.441406 -0.5625 L 0.441406 -27.570312 C 0.441406 -28.121094 0.613281 -28.574219 0.964844 -28.925781 C 1.316406 -29.277344 1.769531 -29.453125 2.320312 -29.453125 L 11.148438 -29.453125 C 13.175781 -29.453125 14.746094 -28.894531 15.859375 -27.78125 C 16.972656 -26.667969 17.53125 -25.097656 17.53125 -23.070312 Z M 14.894531 -23.070312 C 14.894531 -24.371094 14.59375 -25.320312 13.996094 -25.917969 C 13.398438 -26.515625 12.449219 -26.816406 11.148438 -26.816406 L 2.320312 -26.816406 C 2.371094 -26.816406 2.425781 -26.824219 2.492188 -26.847656 C 2.617188 -26.890625 2.730469 -26.960938 2.832031 -27.0625 C 2.929688 -27.160156 3.003906 -27.273438 3.042969 -27.398438 C 3.066406 -27.464844 3.078125 -27.523438 3.078125 -27.570312 L 3.078125 -0.5625 C 3.078125 -0.613281 3.066406 -0.667969 3.042969 -0.734375 C 3.003906 -0.859375 2.929688 -0.972656 2.832031 -1.074219 C 2.730469 -1.171875 2.617188 -1.242188 2.492188 -1.285156 C 2.425781 -1.308594 2.371094 -1.320312 2.320312 -1.320312 L 5.976562 -1.320312 C 5.929688 -1.320312 5.871094 -1.308594 5.808594 -1.285156 C 5.679688 -1.242188 5.566406 -1.171875 5.46875 -1.074219 C 5.367188 -0.972656 5.296875 -0.859375 5.253906 -0.734375 C 5.234375 -0.667969 5.222656 -0.613281 5.222656 -0.5625 L 5.222656 -10.742188 L 9.984375 -10.742188 L 12.605469 -0.800781 L 12.613281 -0.769531 C 12.585938 -0.902344 12.5 -1.027344 12.363281 -1.140625 C 12.21875 -1.257812 12.074219 -1.320312 11.921875 -1.320312 L 15.578125 -1.320312 C 15.542969 -1.320312 15.492188 -1.308594 15.429688 -1.285156 C 15.257812 -1.226562 15.113281 -1.121094 14.996094 -0.96875 C 14.875 -0.8125 14.804688 -0.640625 14.792969 -0.453125 C 14.785156 -0.378906 14.789062 -0.328125 14.796875 -0.296875 L 12.082031 -10.601562 L 13.117188 -11.054688 C 13.699219 -11.308594 14.132812 -11.695312 14.417969 -12.207031 C 14.734375 -12.785156 14.894531 -13.542969 14.894531 -14.488281 Z M 6.542969 -15.386719 L 10.023438 -15.386719 C 10.113281 -15.386719 10.179688 -15.390625 10.222656 -15.40625 C 10.199219 -15.398438 10.175781 -15.378906 10.144531 -15.351562 C 10.117188 -15.320312 10.097656 -15.296875 10.089844 -15.273438 C 10.105469 -15.316406 10.109375 -15.382812 10.109375 -15.472656 L 10.109375 -22.085938 C 10.109375 -22.175781 10.105469 -22.242188 10.089844 -22.285156 C 10.097656 -22.261719 10.117188 -22.238281 10.144531 -22.207031 C 10.175781 -22.179688 10.199219 -22.160156 10.222656 -22.152344 C 10.179688 -22.167969 10.113281 -22.171875 10.023438 -22.171875 L 6.542969 -22.171875 L 6.542969 -23.492188 L 7.859375 -23.492188 L 7.859375 -14.066406 L 6.542969 -14.066406 Z M 5.222656 -12.75 L 5.222656 -24.8125 L 10.023438 -24.8125 C 10.855469 -24.8125 11.519531 -24.566406 12.011719 -24.074219 C 12.503906 -23.582031 12.75 -22.917969 12.75 -22.085938 L 12.75 -15.472656 C 12.75 -14.640625 12.503906 -13.976562 12.011719 -13.484375 C 11.519531 -12.992188 10.855469 -12.75 10.023438 -12.75 Z M 5.222656 -12.75 "/></g></g></g><g fill="#bfbfbf" fill-opacity="1"><g transform="translate(18.700642, 67.604669)"><g><path d="M 0.441406 -5.0625 L 0.441406 -19.554688 C 0.441406 -21.585938 1.003906 -23.160156 2.132812 -24.273438 C 3.257812 -25.382812 4.820312 -25.9375 6.824219 -25.9375 L 10.761719 -25.9375 C 12.789062 -25.9375 14.359375 -25.378906 15.472656 -24.265625 C 16.585938 -23.152344 17.144531 -21.582031 17.144531 -19.554688 L 17.144531 -5.0625 C 17.144531 -3.0625 16.589844 -1.5 15.480469 -0.375 C 14.367188 0.753906 12.792969 1.320312 10.761719 1.320312 L 6.824219 1.320312 C 4.816406 1.320312 3.253906 0.757812 2.128906 -0.367188 C 1.003906 -1.492188 0.441406 -3.058594 0.441406 -5.0625 Z M 3.078125 -5.0625 C 3.078125 -3.789062 3.382812 -2.84375 3.992188 -2.234375 C 4.601562 -1.625 5.546875 -1.320312 6.824219 -1.320312 L 10.761719 -1.320312 C 12.058594 -1.320312 13.003906 -1.621094 13.601562 -2.226562 C 14.207031 -2.839844 14.507812 -3.785156 14.507812 -5.0625 L 14.507812 -19.554688 C 14.507812 -20.851562 14.207031 -21.804688 13.609375 -22.402344 C 13.011719 -23 12.0625 -23.296875 10.761719 -23.296875 L 6.824219 -23.296875 C 5.542969 -23.296875 4.597656 -22.996094 3.984375 -22.394531 C 3.378906 -21.796875 3.078125 -20.851562 3.078125 -19.554688 Z M 7.738281 -5.855469 L 9.988281 -5.855469 C 10.078125 -5.855469 10.144531 -5.863281 10.1875 -5.875 C 10.164062 -5.867188 10.140625 -5.851562 10.109375 -5.820312 C 10.082031 -5.792969 10.0625 -5.765625 10.054688 -5.746094 C 10.070312 -5.785156 10.074219 -5.851562 10.074219 -5.941406 L 10.074219 -18.675781 C 10.074219 -18.765625 10.070312 -18.832031 10.054688 -18.871094 C 10.0625 -18.851562 10.082031 -18.824219 10.109375 -18.796875 C 10.140625 -18.765625 10.164062 -18.75 10.1875 -18.742188 C 10.144531 -18.753906 10.078125 -18.761719 9.988281 -18.761719 L 7.738281 -18.761719 C 7.644531 -18.761719 7.578125 -18.753906 7.539062 -18.742188 C 7.558594 -18.75 7.585938 -18.765625 7.613281 -18.796875 C 7.644531 -18.824219 7.664062 -18.851562 7.667969 -18.871094 C 7.65625 -18.832031 7.648438 -18.765625 7.648438 -18.675781 L 7.648438 -5.941406 C 7.648438 -5.851562 7.65625 -5.785156 7.667969 -5.746094 C 7.664062 -5.765625 7.644531 -5.792969 7.613281 -5.820312 C 7.585938 -5.851562 7.558594 -5.867188 7.539062 -5.875 C 7.578125 -5.863281 7.644531 -5.855469 7.738281 -5.855469 Z M 7.738281 -3.21875 C 6.902344 -3.21875 6.242188 -3.464844 5.75 -3.957031 C 5.257812 -4.449219 5.011719 -5.109375 5.011719 -5.941406 L 5.011719 -18.675781 C 5.011719 -19.507812 5.257812 -20.167969 5.75 -20.660156 C 6.242188 -21.152344 6.902344 -21.398438 7.738281 -21.398438 L 9.988281 -21.398438 C 10.820312 -21.398438 11.484375 -21.152344 11.976562 -20.660156 C 12.46875 -20.167969 12.714844 -19.507812 12.714844 -18.675781 L 12.714844 -5.941406 C 12.714844 -5.109375 12.46875 -4.449219 11.976562 -3.957031 C 11.484375 -3.464844 10.820312 -3.21875 9.988281 -3.21875 Z M 7.738281 -3.21875 "/></g></g></g><g fill="#bfbfbf" fill-opacity="1"><g transform="translate(36.283914, 67.604669)"><g><path d="M 0.441406 -5.0625 L 0.441406 -19.554688 C 0.441406 -21.585938 1.003906 -23.160156 2.132812 -24.273438 C 3.257812 -25.382812 4.820312 -25.9375 6.824219 -25.9375 L 10.761719 -25.9375 C 12.761719 -25.9375 14.324219 -25.382812 15.449219 -24.273438 C 16.578125 -23.160156 17.144531 -21.585938 17.144531 -19.554688 L 17.144531 -16.949219 C 17.144531 -16.398438 16.96875 -15.949219 16.617188 -15.597656 C 16.265625 -15.246094 15.8125 -15.070312 15.261719 -15.070312 L 11.957031 -15.070312 C 11.40625 -15.070312 10.953125 -15.246094 10.601562 -15.597656 C 10.25 -15.949219 10.074219 -16.398438 10.074219 -16.949219 L 10.074219 -18.675781 C 10.074219 -18.765625 10.070312 -18.832031 10.054688 -18.871094 C 10.0625 -18.851562 10.082031 -18.824219 10.109375 -18.796875 C 10.140625 -18.765625 10.164062 -18.75 10.1875 -18.742188 C 10.144531 -18.753906 10.078125 -18.761719 9.988281 -18.761719 L 7.738281 -18.761719 C 7.644531 -18.761719 7.578125 -18.753906 7.539062 -18.742188 C 7.558594 -18.75 7.585938 -18.765625 7.613281 -18.796875 C 7.644531 -18.824219 7.664062 -18.851562 7.667969 -18.871094 C 7.65625 -18.832031 7.648438 -18.765625 7.648438 -18.675781 L 7.648438 -5.941406 C 7.648438 -5.851562 7.65625 -5.785156 7.667969 -5.746094 C 7.664062 -5.765625 7.644531 -5.792969 7.613281 -5.820312 C 7.585938 -5.851562 7.558594 -5.867188 7.539062 -5.875 C 7.578125 -5.863281 7.644531 -5.855469 7.738281 -5.855469 L 9.988281 -5.855469 C 10.078125 -5.855469 10.144531 -5.863281 10.1875 -5.875 C 10.164062 -5.867188 10.140625 -5.851562 10.109375 -5.820312 C 10.082031 -5.792969 10.0625 -5.765625 10.054688 -5.746094 C 10.070312 -5.785156 10.074219 -5.851562 10.074219 -5.941406 L 10.074219 -9.003906 L 11.394531 -9.003906 L 11.394531 -7.683594 L 9.566406 -7.683594 C 9.015625 -7.683594 8.5625 -7.859375 8.210938 -8.210938 C 7.859375 -8.5625 7.683594 -9.015625 7.683594 -9.566406 L 7.683594 -13.082031 C 7.683594 -13.632812 7.859375 -14.085938 8.210938 -14.4375 C 8.5625 -14.789062 9.015625 -14.964844 9.566406 -14.964844 L 15.261719 -14.964844 C 15.8125 -14.964844 16.265625 -14.789062 16.617188 -14.4375 C 16.96875 -14.085938 17.144531 -13.632812 17.144531 -13.082031 L 17.144531 -5.0625 C 17.144531 -3.058594 16.582031 -1.492188 15.457031 -0.367188 C 14.332031 0.757812 12.765625 1.320312 10.761719 1.320312 L 6.824219 1.320312 C 4.816406 1.320312 3.253906 0.757812 2.128906 -0.367188 C 1.003906 -1.492188 0.441406 -3.058594 0.441406 -5.0625 Z M 3.078125 -5.0625 C 3.078125 -3.789062 3.382812 -2.84375 3.992188 -2.234375 C 4.601562 -1.625 5.546875 -1.320312 6.824219 -1.320312 L 10.761719 -1.320312 C 12.039062 -1.320312 12.980469 -1.625 13.589844 -2.234375 C 14.203125 -2.84375 14.507812 -3.789062 14.507812 -5.0625 L 14.507812 -13.082031 C 14.507812 -13.035156 14.515625 -12.976562 14.539062 -12.910156 C 14.582031 -12.785156 14.652344 -12.671875 14.753906 -12.570312 C 14.851562 -12.472656 14.964844 -12.402344 15.089844 -12.359375 C 15.15625 -12.335938 15.214844 -12.324219 15.261719 -12.324219 L 9.566406 -12.324219 C 9.613281 -12.324219 9.671875 -12.335938 9.738281 -12.359375 C 9.863281 -12.402344 9.976562 -12.472656 10.074219 -12.570312 C 10.175781 -12.671875 10.246094 -12.785156 10.289062 -12.910156 C 10.3125 -12.976562 10.320312 -13.035156 10.320312 -13.082031 L 10.320312 -9.566406 C 10.320312 -9.613281 10.3125 -9.671875 10.289062 -9.738281 C 10.246094 -9.863281 10.175781 -9.976562 10.074219 -10.074219 C 9.976562 -10.175781 9.863281 -10.246094 9.738281 -10.289062 C 9.671875 -10.3125 9.613281 -10.320312 9.566406 -10.320312 L 12.714844 -10.320312 L 12.714844 -5.941406 C 12.714844 -5.109375 12.46875 -4.449219 11.976562 -3.957031 C 11.484375 -3.464844 10.820312 -3.21875 9.988281 -3.21875 L 7.738281 -3.21875 C 6.902344 -3.21875 6.242188 -3.464844 5.75 -3.957031 C 5.257812 -4.449219 5.011719 -5.109375 5.011719 -5.941406 L 5.011719 -18.675781 C 5.011719 -19.507812 5.257812 -20.167969 5.75 -20.660156 C 6.242188 -21.152344 6.902344 -21.398438 7.738281 -21.398438 L 9.988281 -21.398438 C 10.820312 -21.398438 11.484375 -21.152344 11.976562 -20.660156 C 12.46875 -20.167969 12.714844 -19.507812 12.714844 -18.675781 L 12.714844 -16.949219 C 12.714844 -17 12.703125 -17.054688 12.679688 -17.121094 C 12.636719 -17.25 12.566406 -17.363281 12.46875 -17.460938 C 12.367188 -17.5625 12.253906 -17.632812 12.128906 -17.675781 C 12.0625 -17.695312 12.003906 -17.707031 11.957031 -17.707031 L 15.261719 -17.707031 C 15.214844 -17.707031 15.15625 -17.695312 15.089844 -17.675781 C 14.964844 -17.632812 14.851562 -17.5625 14.753906 -17.460938 C 14.652344 -17.363281 14.582031 -17.25 14.539062 -17.121094 C 14.515625 -17.054688 14.507812 -17 14.507812 -16.949219 L 14.507812 -19.554688 C 14.507812 -20.851562 14.203125 -21.796875 13.597656 -22.394531 C 12.988281 -22.996094 12.042969 -23.296875 10.761719 -23.296875 L 6.824219 -23.296875 C 5.542969 -23.296875 4.597656 -22.996094 3.984375 -22.394531 C 3.378906 -21.796875 3.078125 -20.851562 3.078125 -19.554688 Z M 3.078125 -5.0625 "/></g></g></g><g fill="#bfbfbf" fill-opacity="1"><g transform="translate(53.867185, 67.604669)"><g><path d="M 17.109375 -24.054688 L 17.109375 -20.539062 C 17.109375 -19.988281 16.941406 -19.539062 16.609375 -19.183594 C 16.253906 -18.808594 15.796875 -18.621094 15.226562 -18.621094 L 6.542969 -18.621094 L 6.542969 -19.941406 L 7.859375 -19.941406 L 7.859375 -14.523438 L 6.542969 -14.523438 L 6.542969 -15.84375 L 13.152344 -15.84375 C 13.71875 -15.84375 14.179688 -15.65625 14.535156 -15.277344 C 14.867188 -14.925781 15.035156 -14.472656 15.035156 -13.925781 L 15.035156 -10.445312 C 15.035156 -9.898438 14.867188 -9.445312 14.535156 -9.09375 C 14.179688 -8.714844 13.71875 -8.527344 13.152344 -8.527344 L 6.542969 -8.527344 L 6.542969 -9.847656 L 7.859375 -9.847656 L 7.859375 -4.640625 L 6.542969 -4.640625 L 6.542969 -5.960938 L 15.226562 -5.960938 C 15.777344 -5.960938 16.230469 -5.785156 16.582031 -5.433594 C 16.933594 -5.082031 17.109375 -4.632812 17.109375 -4.078125 L 17.109375 -0.5625 C 17.109375 -0.0117188 16.933594 0.441406 16.582031 0.792969 C 16.230469 1.144531 15.777344 1.320312 15.226562 1.320312 L 2.285156 1.320312 C 1.730469 1.320312 1.277344 1.132812 0.929688 0.761719 C 0.601562 0.414062 0.441406 -0.0273438 0.441406 -0.5625 L 0.441406 -24.054688 C 0.441406 -24.589844 0.601562 -25.03125 0.929688 -25.378906 C 1.277344 -25.75 1.730469 -25.9375 2.285156 -25.9375 L 15.226562 -25.9375 C 15.777344 -25.9375 16.230469 -25.761719 16.582031 -25.410156 C 16.933594 -25.058594 17.109375 -24.605469 17.109375 -24.054688 Z M 14.472656 -24.054688 C 14.472656 -24.003906 14.480469 -23.949219 14.503906 -23.882812 C 14.546875 -23.757812 14.617188 -23.644531 14.71875 -23.542969 C 14.816406 -23.445312 14.929688 -23.371094 15.054688 -23.332031 C 15.121094 -23.308594 15.179688 -23.296875 15.226562 -23.296875 L 2.285156 -23.296875 C 2.351562 -23.296875 2.421875 -23.3125 2.496094 -23.339844 C 2.632812 -23.386719 2.75 -23.464844 2.851562 -23.574219 C 2.945312 -23.675781 3.011719 -23.785156 3.050781 -23.90625 C 3.066406 -23.964844 3.078125 -24.015625 3.078125 -24.054688 L 3.078125 -0.5625 C 3.078125 -0.601562 3.066406 -0.652344 3.050781 -0.710938 C 3.011719 -0.832031 2.945312 -0.941406 2.851562 -1.042969 C 2.75 -1.152344 2.632812 -1.230469 2.496094 -1.277344 C 2.421875 -1.304688 2.351562 -1.320312 2.285156 -1.320312 L 15.226562 -1.320312 C 15.179688 -1.320312 15.121094 -1.308594 15.054688 -1.285156 C 14.929688 -1.242188 14.816406 -1.171875 14.71875 -1.074219 C 14.617188 -0.972656 14.546875 -0.859375 14.503906 -0.734375 C 14.480469 -0.667969 14.472656 -0.613281 14.472656 -0.5625 L 14.472656 -4.078125 C 14.472656 -4.03125 14.480469 -3.972656 14.503906 -3.910156 C 14.546875 -3.78125 14.617188 -3.667969 14.71875 -3.570312 C 14.816406 -3.46875 14.929688 -3.398438 15.054688 -3.355469 C 15.121094 -3.335938 15.179688 -3.324219 15.226562 -3.324219 L 5.222656 -3.324219 L 5.222656 -11.164062 L 13.152344 -11.164062 C 13.09375 -11.164062 13.03125 -11.152344 12.957031 -11.128906 C 12.828125 -11.082031 12.714844 -11.003906 12.613281 -10.898438 C 12.523438 -10.804688 12.457031 -10.695312 12.421875 -10.578125 C 12.40625 -10.523438 12.394531 -10.480469 12.394531 -10.445312 L 12.394531 -13.925781 C 12.394531 -13.890625 12.40625 -13.847656 12.421875 -13.792969 C 12.457031 -13.675781 12.523438 -13.566406 12.613281 -13.472656 C 12.714844 -13.367188 12.828125 -13.289062 12.957031 -13.242188 C 13.03125 -13.21875 13.09375 -13.207031 13.152344 -13.207031 L 5.222656 -13.207031 L 5.222656 -21.257812 L 15.226562 -21.257812 C 15.171875 -21.257812 15.105469 -21.246094 15.035156 -21.21875 C 14.902344 -21.175781 14.789062 -21.097656 14.6875 -20.992188 C 14.597656 -20.894531 14.535156 -20.789062 14.496094 -20.671875 C 14.480469 -20.617188 14.472656 -20.574219 14.472656 -20.539062 Z M 14.472656 -24.054688 "/></g></g></g><g fill="#bfbfbf" fill-opacity="1"><g transform="translate(71.415291, 67.604669)"><g><path d="M 17.144531 -19.554688 L 17.144531 -12.484375 C 17.144531 -11.273438 16.941406 -10.222656 16.53125 -9.332031 C 16.09375 -8.378906 15.433594 -7.625 14.554688 -7.074219 L 13.855469 -8.195312 L 15.136719 -8.503906 L 16.964844 -0.941406 L 15.683594 -0.632812 L 16.957031 -0.984375 C 17.132812 -0.347656 17.042969 0.195312 16.691406 0.652344 C 16.34375 1.097656 15.84375 1.320312 15.191406 1.320312 L 11.746094 1.320312 C 11.265625 1.320312 10.855469 1.175781 10.511719 0.894531 C 10.175781 0.617188 9.957031 0.246094 9.859375 -0.214844 L 11.148438 -0.492188 L 9.867188 -0.179688 L 8.179688 -7.109375 L 9.460938 -7.421875 L 9.460938 -6.101562 L 6.332031 -6.101562 L 6.332031 -7.421875 L 7.648438 -7.421875 L 7.648438 -0.5625 C 7.648438 -0.0117188 7.472656 0.441406 7.121094 0.792969 C 6.769531 1.144531 6.320312 1.320312 5.765625 1.320312 L 2.320312 1.320312 C 1.769531 1.320312 1.316406 1.144531 0.964844 0.792969 C 0.613281 0.441406 0.441406 -0.0117188 0.441406 -0.5625 L 0.441406 -24.054688 C 0.441406 -24.605469 0.613281 -25.058594 0.964844 -25.410156 C 1.316406 -25.761719 1.769531 -25.9375 2.320312 -25.9375 L 10.761719 -25.9375 C 12.789062 -25.9375 14.359375 -25.378906 15.472656 -24.265625 C 16.585938 -23.152344 17.144531 -21.582031 17.144531 -19.554688 Z M 14.507812 -19.554688 C 14.507812 -20.851562 14.207031 -21.804688 13.609375 -22.402344 C 13.011719 -23 12.0625 -23.296875 10.761719 -23.296875 L 2.320312 -23.296875 C 2.371094 -23.296875 2.425781 -23.308594 2.492188 -23.332031 C 2.617188 -23.371094 2.730469 -23.445312 2.832031 -23.542969 C 2.929688 -23.644531 3.003906 -23.757812 3.042969 -23.882812 C 3.066406 -23.949219 3.078125 -24.003906 3.078125 -24.054688 L 3.078125 -0.5625 C 3.078125 -0.613281 3.066406 -0.667969 3.042969 -0.734375 C 3.003906 -0.859375 2.929688 -0.972656 2.832031 -1.074219 C 2.730469 -1.171875 2.617188 -1.242188 2.492188 -1.285156 C 2.425781 -1.308594 2.371094 -1.320312 2.320312 -1.320312 L 5.765625 -1.320312 C 5.71875 -1.320312 5.660156 -1.308594 5.597656 -1.285156 C 5.46875 -1.242188 5.355469 -1.171875 5.257812 -1.074219 C 5.15625 -0.972656 5.085938 -0.859375 5.042969 -0.734375 C 5.023438 -0.667969 5.011719 -0.613281 5.011719 -0.5625 L 5.011719 -8.738281 L 10.496094 -8.738281 L 12.433594 -0.785156 L 12.4375 -0.769531 C 12.410156 -0.902344 12.324219 -1.027344 12.1875 -1.140625 C 12.042969 -1.257812 11.898438 -1.320312 11.746094 -1.320312 L 15.191406 -1.320312 C 15.15625 -1.320312 15.105469 -1.308594 15.042969 -1.285156 C 14.871094 -1.226562 14.726562 -1.121094 14.609375 -0.96875 C 14.484375 -0.8125 14.417969 -0.640625 14.40625 -0.453125 C 14.398438 -0.378906 14.402344 -0.320312 14.414062 -0.28125 L 14.40625 -0.300781 L 12.351562 -8.808594 L 13.15625 -9.3125 C 14.058594 -9.875 14.507812 -10.933594 14.507812 -12.484375 Z M 6.332031 -13.277344 L 9.847656 -13.277344 C 9.9375 -13.277344 10.003906 -13.28125 10.046875 -13.296875 C 10.023438 -13.289062 10 -13.269531 9.96875 -13.242188 C 9.941406 -13.210938 9.921875 -13.1875 9.914062 -13.164062 C 9.929688 -13.207031 9.933594 -13.273438 9.933594 -13.363281 L 9.933594 -18.675781 C 9.933594 -18.765625 9.929688 -18.832031 9.914062 -18.871094 C 9.921875 -18.851562 9.941406 -18.824219 9.96875 -18.796875 C 10 -18.765625 10.023438 -18.75 10.046875 -18.742188 C 10.003906 -18.753906 9.9375 -18.761719 9.847656 -18.761719 L 6.332031 -18.761719 L 6.332031 -20.082031 L 7.648438 -20.082031 L 7.648438 -11.957031 L 6.332031 -11.957031 Z M 5.011719 -10.636719 L 5.011719 -21.398438 L 9.847656 -21.398438 C 10.679688 -21.398438 11.34375 -21.152344 11.835938 -20.660156 C 12.328125 -20.167969 12.574219 -19.507812 12.574219 -18.675781 L 12.574219 -13.363281 C 12.574219 -12.53125 12.328125 -11.867188 11.835938 -11.375 C 11.34375 -10.882812 10.679688 -10.636719 9.847656 -10.636719 Z M 5.011719 -10.636719 "/></g></g></g><g clip-path="url(#5c7d85a0ef)"><g fill="#bfbfbf" fill-opacity="1"><g transform="translate(88.998562, 67.604669)"><g><path d="M 6.824219 -25.9375 L 10.761719 -25.9375 C 12.789062 -25.9375 14.359375 -25.378906 15.472656 -24.265625 C 16.585938 -23.152344 17.144531 -21.582031 17.144531 -19.554688 L 17.144531 -17.230469 C 17.144531 -16.679688 16.96875 -16.230469 16.617188 -15.878906 C 16.265625 -15.527344 15.8125 -15.351562 15.261719 -15.351562 L 11.710938 -15.351562 C 11.160156 -15.351562 10.707031 -15.527344 10.355469 -15.878906 C 10.003906 -16.230469 9.828125 -16.679688 9.828125 -17.230469 L 9.828125 -18.710938 C 9.828125 -18.800781 9.824219 -18.867188 9.808594 -18.90625 C 9.816406 -18.886719 9.835938 -18.859375 9.863281 -18.832031 C 9.894531 -18.800781 9.917969 -18.785156 9.941406 -18.777344 C 9.898438 -18.789062 9.832031 -18.796875 9.742188 -18.796875 L 7.808594 -18.796875 C 7.714844 -18.796875 7.648438 -18.789062 7.609375 -18.777344 C 7.628906 -18.785156 7.65625 -18.800781 7.683594 -18.832031 C 7.714844 -18.859375 7.734375 -18.886719 7.738281 -18.90625 C 7.726562 -18.867188 7.71875 -18.800781 7.71875 -18.710938 L 7.71875 -15.71875 L 6.402344 -15.71875 L 6.804688 -16.976562 L 15.316406 -14.230469 C 15.90625 -14.027344 16.359375 -13.699219 16.675781 -13.25 C 16.988281 -12.808594 17.144531 -12.28125 17.144531 -11.675781 L 17.144531 -5.0625 C 17.144531 -3.0625 16.589844 -1.5 15.480469 -0.375 C 14.367188 0.753906 12.792969 1.320312 10.761719 1.320312 L 6.824219 1.320312 C 4.816406 1.320312 3.253906 0.757812 2.128906 -0.367188 C 1.003906 -1.492188 0.441406 -3.058594 0.441406 -5.0625 L 0.441406 -7.351562 C 0.441406 -7.902344 0.613281 -8.351562 0.964844 -8.703125 C 1.316406 -9.054688 1.769531 -9.230469 2.320312 -9.230469 L 5.871094 -9.230469 C 6.425781 -9.230469 6.875 -9.054688 7.226562 -8.703125 C 7.578125 -8.351562 7.753906 -7.902344 7.753906 -7.351562 L 7.753906 -5.871094 C 7.753906 -5.78125 7.761719 -5.714844 7.773438 -5.675781 C 7.769531 -5.695312 7.75 -5.722656 7.71875 -5.75 C 7.691406 -5.78125 7.664062 -5.796875 7.644531 -5.804688 C 7.683594 -5.792969 7.75 -5.785156 7.84375 -5.785156 L 9.742188 -5.785156 C 9.832031 -5.785156 9.898438 -5.792969 9.941406 -5.804688 C 9.917969 -5.796875 9.894531 -5.78125 9.863281 -5.75 C 9.835938 -5.722656 9.816406 -5.695312 9.808594 -5.675781 C 9.824219 -5.714844 9.828125 -5.78125 9.828125 -5.871094 L 9.828125 -9.425781 L 11.148438 -9.425781 L 10.742188 -8.171875 L 2.300781 -10.914062 C 1.710938 -11.109375 1.253906 -11.429688 0.929688 -11.875 C 0.601562 -12.324219 0.441406 -12.855469 0.441406 -13.46875 L 0.441406 -19.554688 C 0.441406 -21.585938 1.003906 -23.160156 2.132812 -24.273438 C 3.257812 -25.382812 4.820312 -25.9375 6.824219 -25.9375 Z M 6.824219 -23.296875 C 5.542969 -23.296875 4.597656 -22.996094 3.984375 -22.394531 C 3.378906 -21.796875 3.078125 -20.851562 3.078125 -19.554688 L 3.078125 -13.46875 C 3.078125 -13.429688 3.078125 -13.402344 3.085938 -13.386719 C 3.082031 -13.398438 3.074219 -13.414062 3.0625 -13.429688 C 3.050781 -13.445312 3.039062 -13.453125 3.035156 -13.460938 C 3.050781 -13.445312 3.078125 -13.433594 3.117188 -13.421875 L 12.46875 -10.382812 L 12.46875 -5.871094 C 12.46875 -5.039062 12.222656 -4.378906 11.730469 -3.886719 C 11.238281 -3.394531 10.574219 -3.148438 9.742188 -3.148438 L 7.84375 -3.148438 C 7.007812 -3.148438 6.347656 -3.394531 5.855469 -3.886719 C 5.363281 -4.378906 5.117188 -5.039062 5.117188 -5.871094 L 5.117188 -7.351562 C 5.117188 -7.300781 5.128906 -7.242188 5.148438 -7.179688 C 5.191406 -7.050781 5.261719 -6.9375 5.363281 -6.839844 C 5.460938 -6.738281 5.574219 -6.667969 5.703125 -6.625 C 5.765625 -6.605469 5.824219 -6.59375 5.871094 -6.59375 L 2.320312 -6.59375 C 2.371094 -6.59375 2.425781 -6.605469 2.492188 -6.625 C 2.617188 -6.667969 2.730469 -6.738281 2.832031 -6.839844 C 2.929688 -6.9375 3.003906 -7.050781 3.042969 -7.179688 C 3.066406 -7.242188 3.078125 -7.300781 3.078125 -7.351562 L 3.078125 -5.0625 C 3.078125 -3.789062 3.382812 -2.84375 3.992188 -2.234375 C 4.601562 -1.625 5.546875 -1.320312 6.824219 -1.320312 L 10.761719 -1.320312 C 12.058594 -1.320312 13.003906 -1.621094 13.601562 -2.226562 C 14.207031 -2.839844 14.507812 -3.785156 14.507812 -5.0625 L 14.507812 -11.675781 C 14.507812 -11.71875 14.503906 -11.75 14.5 -11.769531 C 14.5 -11.761719 14.507812 -11.75 14.519531 -11.734375 C 14.53125 -11.71875 14.539062 -11.707031 14.550781 -11.699219 C 14.539062 -11.707031 14.523438 -11.714844 14.507812 -11.722656 L 5.082031 -14.757812 L 5.082031 -18.710938 C 5.082031 -19.542969 5.328125 -20.203125 5.820312 -20.695312 C 6.3125 -21.1875 6.972656 -21.433594 7.808594 -21.433594 L 9.742188 -21.433594 C 10.574219 -21.433594 11.238281 -21.1875 11.730469 -20.695312 C 12.222656 -20.203125 12.46875 -19.542969 12.46875 -18.710938 L 12.46875 -17.230469 C 12.46875 -17.28125 12.457031 -17.335938 12.433594 -17.402344 C 12.390625 -17.53125 12.320312 -17.644531 12.222656 -17.742188 C 12.121094 -17.84375 12.007812 -17.914062 11.882812 -17.957031 C 11.816406 -17.976562 11.757812 -17.988281 11.710938 -17.988281 L 15.261719 -17.988281 C 15.214844 -17.988281 15.15625 -17.976562 15.089844 -17.957031 C 14.964844 -17.914062 14.851562 -17.84375 14.753906 -17.742188 C 14.652344 -17.644531 14.582031 -17.53125 14.539062 -17.402344 C 14.515625 -17.335938 14.507812 -17.28125 14.507812 -17.230469 L 14.507812 -19.554688 C 14.507812 -20.851562 14.207031 -21.804688 13.609375 -22.402344 C 13.011719 -23 12.0625 -23.296875 10.761719 -23.296875 Z M 6.824219 -23.296875 "/></g></g></g></g><g fill="#000000" fill-opacity="1"><g transform="translate(0.730541, 35.876726)"><g><path d="M 11.046875 -6.046875 L 11.046875 -27.578125 C 11.046875 -27.953125 11.234375 -28.140625 11.609375 -28.140625 L 15.265625 -28.140625 C 15.640625 -28.140625 15.828125 -27.953125 15.828125 -27.578125 L 15.828125 -5.0625 C 15.828125 -3.425781 15.390625 -2.171875 14.515625 -1.296875 C 13.648438 -0.429688 12.398438 0 10.765625 0 L 6.828125 0 C 5.179688 0 3.925781 -0.429688 3.0625 -1.296875 C 2.195312 -2.171875 1.765625 -3.425781 1.765625 -5.0625 L 1.765625 -8.71875 C 1.765625 -9.09375 1.953125 -9.28125 2.328125 -9.28125 L 5.84375 -9.28125 C 6.21875 -9.28125 6.40625 -9.09375 6.40625 -8.71875 L 6.40625 -6.046875 C 6.40625 -5.109375 6.875 -4.640625 7.8125 -4.640625 L 9.640625 -4.640625 C 10.578125 -4.640625 11.046875 -5.109375 11.046875 -6.046875 Z M 11.046875 -6.046875 "/></g></g></g><g fill="#000000" fill-opacity="1"><g transform="translate(20.31843, 35.876726)"><g><path d="M 15.796875 -24.0625 L 15.796875 -20.546875 C 15.796875 -20.140625 15.609375 -19.9375 15.234375 -19.9375 L 6.546875 -19.9375 L 6.546875 -14.53125 L 13.15625 -14.53125 C 13.53125 -14.53125 13.71875 -14.328125 13.71875 -13.921875 L 13.71875 -10.453125 C 13.71875 -10.046875 13.53125 -9.84375 13.15625 -9.84375 L 6.546875 -9.84375 L 6.546875 -4.640625 L 15.234375 -4.640625 C 15.609375 -4.640625 15.796875 -4.453125 15.796875 -4.078125 L 15.796875 -0.5625 C 15.796875 -0.1875 15.609375 0 15.234375 0 L 2.28125 0 C 1.9375 0 1.765625 -0.1875 1.765625 -0.5625 L 1.765625 -24.0625 C 1.765625 -24.4375 1.9375 -24.625 2.28125 -24.625 L 15.234375 -24.625 C 15.609375 -24.625 15.796875 -24.4375 15.796875 -24.0625 Z M 15.796875 -24.0625 "/></g></g></g><g fill="#000000" fill-opacity="1"><g transform="translate(39.871152, 35.876726)"><g><path d="M 15.828125 -24.0625 L 15.828125 -20.546875 C 15.828125 -20.171875 15.640625 -19.984375 15.265625 -19.984375 L 6.546875 -19.984375 L 6.546875 -13.96875 L 13.15625 -13.96875 C 13.53125 -13.96875 13.71875 -13.78125 13.71875 -13.40625 L 13.71875 -9.890625 C 13.71875 -9.515625 13.53125 -9.328125 13.15625 -9.328125 L 6.546875 -9.328125 L 6.546875 -0.5625 C 6.546875 -0.1875 6.359375 0 5.984375 0 L 2.328125 0 C 1.953125 0 1.765625 -0.1875 1.765625 -0.5625 L 1.765625 -24.0625 C 1.765625 -24.4375 1.953125 -24.625 2.328125 -24.625 L 15.265625 -24.625 C 15.640625 -24.625 15.828125 -24.4375 15.828125 -24.0625 Z M 15.828125 -24.0625 "/></g></g></g><g fill="#000000" fill-opacity="1"><g transform="translate(59.459041, 35.876726)"><g><path d="M 15.828125 -24.0625 L 15.828125 -20.546875 C 15.828125 -20.171875 15.640625 -19.984375 15.265625 -19.984375 L 6.546875 -19.984375 L 6.546875 -13.96875 L 13.15625 -13.96875 C 13.53125 -13.96875 13.71875 -13.78125 13.71875 -13.40625 L 13.71875 -9.890625 C 13.71875 -9.515625 13.53125 -9.328125 13.15625 -9.328125 L 6.546875 -9.328125 L 6.546875 -0.5625 C 6.546875 -0.1875 6.359375 0 5.984375 0 L 2.328125 0 C 1.953125 0 1.765625 -0.1875 1.765625 -0.5625 L 1.765625 -24.0625 C 1.765625 -24.4375 1.953125 -24.625 2.328125 -24.625 L 15.265625 -24.625 C 15.640625 -24.625 15.828125 -24.4375 15.828125 -24.0625 Z M 15.828125 -24.0625 "/></g></g></g><g fill="#000000" fill-opacity="1"><g transform="translate(0.730541, 67.604669)"><g><path d="M 16.21875 -23.078125 L 16.21875 -14.484375 C 16.21875 -12.140625 15.359375 -10.59375 13.640625 -9.84375 L 16.078125 -0.640625 C 16.191406 -0.210938 16.023438 0 15.578125 0 L 11.921875 0 C 11.597656 0 11.398438 -0.164062 11.328125 -0.5 L 8.96875 -9.421875 L 6.546875 -9.421875 L 6.546875 -0.5625 C 6.546875 -0.1875 6.359375 0 5.984375 0 L 2.328125 0 C 1.953125 0 1.765625 -0.1875 1.765625 -0.5625 L 1.765625 -27.578125 C 1.765625 -27.953125 1.953125 -28.140625 2.328125 -28.140625 L 11.15625 -28.140625 C 12.8125 -28.140625 14.066406 -27.707031 14.921875 -26.84375 C 15.785156 -25.988281 16.21875 -24.734375 16.21875 -23.078125 Z M 6.546875 -14.0625 L 10.03125 -14.0625 C 10.96875 -14.0625 11.4375 -14.53125 11.4375 -15.46875 L 11.4375 -22.09375 C 11.4375 -23.03125 10.96875 -23.5 10.03125 -23.5 L 6.546875 -23.5 Z M 6.546875 -14.0625 "/></g></g></g><g fill="#000000" fill-opacity="1"><g transform="translate(18.700642, 67.604669)"><g><path d="M 1.765625 -5.0625 L 1.765625 -19.5625 C 1.765625 -21.21875 2.195312 -22.472656 3.0625 -23.328125 C 3.925781 -24.191406 5.179688 -24.625 6.828125 -24.625 L 10.765625 -24.625 C 12.429688 -24.625 13.691406 -24.191406 14.546875 -23.328125 C 15.398438 -22.472656 15.828125 -21.21875 15.828125 -19.5625 L 15.828125 -5.0625 C 15.828125 -3.425781 15.398438 -2.171875 14.546875 -1.296875 C 13.691406 -0.429688 12.429688 0 10.765625 0 L 6.828125 0 C 5.179688 0 3.925781 -0.429688 3.0625 -1.296875 C 2.195312 -2.171875 1.765625 -3.425781 1.765625 -5.0625 Z M 7.734375 -4.53125 L 9.984375 -4.53125 C 10.921875 -4.53125 11.390625 -5 11.390625 -5.9375 L 11.390625 -18.671875 C 11.390625 -19.609375 10.921875 -20.078125 9.984375 -20.078125 L 7.734375 -20.078125 C 6.796875 -20.078125 6.328125 -19.609375 6.328125 -18.671875 L 6.328125 -5.9375 C 6.328125 -5 6.796875 -4.53125 7.734375 -4.53125 Z M 7.734375 -4.53125 "/></g></g></g><g fill="#000000" fill-opacity="1"><g transform="translate(36.283914, 67.604669)"><g><path d="M 1.765625 -5.0625 L 1.765625 -19.5625 C 1.765625 -21.21875 2.195312 -22.472656 3.0625 -23.328125 C 3.925781 -24.191406 5.179688 -24.625 6.828125 -24.625 L 10.765625 -24.625 C 12.398438 -24.625 13.648438 -24.191406 14.515625 -23.328125 C 15.390625 -22.472656 15.828125 -21.21875 15.828125 -19.5625 L 15.828125 -16.953125 C 15.828125 -16.578125 15.640625 -16.390625 15.265625 -16.390625 L 11.953125 -16.390625 C 11.578125 -16.390625 11.390625 -16.578125 11.390625 -16.953125 L 11.390625 -18.671875 C 11.390625 -19.609375 10.921875 -20.078125 9.984375 -20.078125 L 7.734375 -20.078125 C 6.796875 -20.078125 6.328125 -19.609375 6.328125 -18.671875 L 6.328125 -5.9375 C 6.328125 -5 6.796875 -4.53125 7.734375 -4.53125 L 9.984375 -4.53125 C 10.921875 -4.53125 11.390625 -5 11.390625 -5.9375 L 11.390625 -9 L 9.5625 -9 C 9.1875 -9 9 -9.1875 9 -9.5625 L 9 -13.078125 C 9 -13.453125 9.1875 -13.640625 9.5625 -13.640625 L 15.265625 -13.640625 C 15.640625 -13.640625 15.828125 -13.453125 15.828125 -13.078125 L 15.828125 -5.0625 C 15.828125 -3.425781 15.390625 -2.171875 14.515625 -1.296875 C 13.648438 -0.429688 12.398438 0 10.765625 0 L 6.828125 0 C 5.179688 0 3.925781 -0.429688 3.0625 -1.296875 C 2.195312 -2.171875 1.765625 -3.425781 1.765625 -5.0625 Z M 1.765625 -5.0625 "/></g></g></g><g fill="#000000" fill-opacity="1"><g transform="translate(53.867185, 67.604669)"><g><path d="M 15.796875 -24.0625 L 15.796875 -20.546875 C 15.796875 -20.140625 15.609375 -19.9375 15.234375 -19.9375 L 6.546875 -19.9375 L 6.546875 -14.53125 L 13.15625 -14.53125 C 13.53125 -14.53125 13.71875 -14.328125 13.71875 -13.921875 L 13.71875 -10.453125 C 13.71875 -10.046875 13.53125 -9.84375 13.15625 -9.84375 L 6.546875 -9.84375 L 6.546875 -4.640625 L 15.234375 -4.640625 C 15.609375 -4.640625 15.796875 -4.453125 15.796875 -4.078125 L 15.796875 -0.5625 C 15.796875 -0.1875 15.609375 0 15.234375 0 L 2.28125 0 C 1.9375 0 1.765625 -0.1875 1.765625 -0.5625 L 1.765625 -24.0625 C 1.765625 -24.4375 1.9375 -24.625 2.28125 -24.625 L 15.234375 -24.625 C 15.609375 -24.625 15.796875 -24.4375 15.796875 -24.0625 Z M 15.796875 -24.0625 "/></g></g></g><g fill="#000000" fill-opacity="1"><g transform="translate(71.415291, 67.604669)"><g><path d="M 15.828125 -19.5625 L 15.828125 -12.484375 C 15.828125 -10.441406 15.171875 -9.007812 13.859375 -8.1875 L 15.6875 -0.640625 C 15.800781 -0.210938 15.632812 0 15.1875 0 L 11.75 0 C 11.414062 0 11.21875 -0.164062 11.15625 -0.5 L 9.46875 -7.421875 L 6.328125 -7.421875 L 6.328125 -0.5625 C 6.328125 -0.1875 6.140625 0 5.765625 0 L 2.328125 0 C 1.953125 0 1.765625 -0.1875 1.765625 -0.5625 L 1.765625 -24.0625 C 1.765625 -24.4375 1.953125 -24.625 2.328125 -24.625 L 10.765625 -24.625 C 12.429688 -24.625 13.691406 -24.191406 14.546875 -23.328125 C 15.398438 -22.472656 15.828125 -21.21875 15.828125 -19.5625 Z M 6.328125 -11.953125 L 9.84375 -11.953125 C 10.78125 -11.953125 11.25 -12.421875 11.25 -13.359375 L 11.25 -18.671875 C 11.25 -19.609375 10.78125 -20.078125 9.84375 -20.078125 L 6.328125 -20.078125 Z M 6.328125 -11.953125 "/></g></g></g><g fill="#000000" fill-opacity="1"><g transform="translate(88.998562, 67.604669)"><g><path d="M 6.828125 -24.625 L 10.765625 -24.625 C 12.429688 -24.625 13.691406 -24.191406 14.546875 -23.328125 C 15.398438 -22.472656 15.828125 -21.21875 15.828125 -19.5625 L 15.828125 -17.234375 C 15.828125 -16.859375 15.640625 -16.671875 15.265625 -16.671875 L 11.71875 -16.671875 C 11.34375 -16.671875 11.15625 -16.859375 11.15625 -17.234375 L 11.15625 -18.71875 C 11.15625 -19.65625 10.6875 -20.125 9.75 -20.125 L 7.8125 -20.125 C 6.875 -20.125 6.40625 -19.65625 6.40625 -18.71875 L 6.40625 -15.71875 L 14.90625 -12.984375 C 15.519531 -12.765625 15.828125 -12.328125 15.828125 -11.671875 L 15.828125 -5.0625 C 15.828125 -3.425781 15.398438 -2.171875 14.546875 -1.296875 C 13.691406 -0.429688 12.429688 0 10.765625 0 L 6.828125 0 C 5.179688 0 3.925781 -0.429688 3.0625 -1.296875 C 2.195312 -2.171875 1.765625 -3.425781 1.765625 -5.0625 L 1.765625 -7.34375 C 1.765625 -7.71875 1.953125 -7.90625 2.328125 -7.90625 L 5.875 -7.90625 C 6.25 -7.90625 6.4375 -7.71875 6.4375 -7.34375 L 6.4375 -5.875 C 6.4375 -4.9375 6.90625 -4.46875 7.84375 -4.46875 L 9.75 -4.46875 C 10.6875 -4.46875 11.15625 -4.9375 11.15625 -5.875 L 11.15625 -9.421875 L 2.703125 -12.171875 C 2.078125 -12.378906 1.765625 -12.8125 1.765625 -13.46875 L 1.765625 -19.5625 C 1.765625 -21.21875 2.195312 -22.472656 3.0625 -23.328125 C 3.925781 -24.191406 5.179688 -24.625 6.828125 -24.625 Z M 6.828125 -24.625 "/></g></g></g></g></g></svg>