<svg xmlns="http://www.w3.org/2000/svg" xmlns:xlink="http://www.w3.org/1999/xlink" width="336" zoomAndPan="magnify" viewBox="0 0 252 143.999998" height="192" preserveAspectRatio="xMidYMid meet" version="1.0"><defs><g/><clipPath id="cec620764e"><rect x="0" width="123" y="0" height="53"/></clipPath></defs><rect x="-25.2" width="302.4" fill="#ffffff" y="-14.4" height="172.799997" fill-opacity="0"/><rect x="-25.2" width="302.4" fill="#73000a" y="-14.4" height="172.799997" fill-opacity="0"/><g transform="matrix(1, 0, 0, 1, 67, 82)"><g clip-path="url(#cec620764e)"><g fill="#fbffff" fill-opacity="1"><g transform="translate(22.963116, 25.381679)"><g><path d="M 1.625 0 L 4.1875 0 C 4.445312 0 4.578125 -0.128906 4.578125 -0.390625 L 4.578125 -16.859375 C 4.578125 -17.117188 4.445312 -17.25 4.1875 -17.25 L 1.625 -17.25 C 1.363281 -17.25 1.234375 -17.117188 1.234375 -16.859375 L 1.234375 -0.390625 C 1.234375 -0.128906 1.363281 0 1.625 0 Z M 1.625 0 "/></g></g></g><g fill="#fbffff" fill-opacity="1"><g transform="translate(28.776868, 25.381679)"><g><path d="M 4.78125 -17.25 L 7.546875 -17.25 C 8.710938 -17.25 9.59375 -16.945312 10.1875 -16.34375 C 10.789062 -15.75 11.09375 -14.867188 11.09375 -13.703125 L 11.09375 -12.078125 C 11.09375 -11.804688 10.957031 -11.671875 10.6875 -11.671875 L 8.203125 -11.671875 C 7.941406 -11.671875 7.8125 -11.804688 7.8125 -12.078125 L 7.8125 -13.109375 C 7.8125 -13.765625 7.484375 -14.09375 6.828125 -14.09375 L 5.46875 -14.09375 C 4.8125 -14.09375 4.484375 -13.765625 4.484375 -13.109375 L 4.484375 -11.015625 L 10.453125 -9.09375 C 10.878906 -8.945312 11.09375 -8.644531 11.09375 -8.1875 L 11.09375 -3.546875 C 11.09375 -2.398438 10.789062 -1.519531 10.1875 -0.90625 C 9.59375 -0.300781 8.710938 0 7.546875 0 L 4.78125 0 C 3.632812 0 2.753906 -0.300781 2.140625 -0.90625 C 1.535156 -1.519531 1.234375 -2.398438 1.234375 -3.546875 L 1.234375 -5.15625 C 1.234375 -5.414062 1.363281 -5.546875 1.625 -5.546875 L 4.109375 -5.546875 C 4.378906 -5.546875 4.515625 -5.414062 4.515625 -5.15625 L 4.515625 -4.109375 C 4.515625 -3.453125 4.84375 -3.125 5.5 -3.125 L 6.828125 -3.125 C 7.484375 -3.125 7.8125 -3.453125 7.8125 -4.109375 L 7.8125 -6.609375 L 1.890625 -8.53125 C 1.453125 -8.675781 1.234375 -8.976562 1.234375 -9.4375 L 1.234375 -13.703125 C 1.234375 -14.867188 1.535156 -15.75 2.140625 -16.34375 C 2.753906 -16.945312 3.632812 -17.25 4.78125 -17.25 Z M 4.78125 -17.25 "/></g></g></g><g fill="#fbffff" fill-opacity="1"><g transform="translate(41.094139, 25.381679)"><g/></g></g><g fill="#fbffff" fill-opacity="1"><g transform="translate(47.252772, 25.381679)"><g><path d="M 4.78125 -19.71875 L 7.546875 -19.71875 C 8.710938 -19.71875 9.59375 -19.414062 10.1875 -18.8125 C 10.789062 -18.207031 11.09375 -17.328125 11.09375 -16.171875 L 11.09375 -13.546875 C 11.09375 -13.285156 10.957031 -13.15625 10.6875 -13.15625 L 8.125 -13.15625 C 7.863281 -13.15625 7.734375 -13.285156 7.734375 -13.546875 L 7.734375 -15.46875 C 7.734375 -16.125 7.40625 -16.453125 6.75 -16.453125 L 5.5625 -16.453125 C 4.90625 -16.453125 4.578125 -16.125 4.578125 -15.46875 L 4.578125 -12.078125 L 10.453125 -10.15625 C 10.878906 -9.96875 11.09375 -9.660156 11.09375 -9.234375 L 11.09375 -3.546875 C 11.09375 -2.398438 10.789062 -1.519531 10.1875 -0.90625 C 9.59375 -0.300781 8.710938 0 7.546875 0 L 4.78125 0 C 3.632812 0 2.753906 -0.300781 2.140625 -0.90625 C 1.535156 -1.519531 1.234375 -2.398438 1.234375 -3.546875 L 1.234375 -6.140625 C 1.234375 -6.398438 1.363281 -6.53125 1.625 -6.53125 L 4.1875 -6.53125 C 4.445312 -6.53125 4.578125 -6.398438 4.578125 -6.140625 L 4.578125 -4.234375 C 4.578125 -3.578125 4.90625 -3.25 5.5625 -3.25 L 6.75 -3.25 C 7.40625 -3.25 7.734375 -3.578125 7.734375 -4.234375 L 7.734375 -7.515625 L 1.890625 -9.4375 C 1.453125 -9.582031 1.234375 -9.882812 1.234375 -10.34375 L 1.234375 -16.171875 C 1.234375 -17.328125 1.535156 -18.207031 2.140625 -18.8125 C 2.753906 -19.414062 3.632812 -19.71875 4.78125 -19.71875 Z M 4.78125 -19.71875 "/></g></g></g><g fill="#fbffff" fill-opacity="1"><g transform="translate(59.570043, 25.381679)"><g><path d="M 1.625 0 L 4.1875 0 C 4.445312 0 4.578125 -0.128906 4.578125 -0.390625 L 4.578125 -16.859375 C 4.578125 -17.117188 4.445312 -17.25 4.1875 -17.25 L 1.625 -17.25 C 1.363281 -17.25 1.234375 -17.117188 1.234375 -16.859375 L 1.234375 -0.390625 C 1.234375 -0.128906 1.363281 0 1.625 0 Z M 1.625 0 "/></g></g></g><g fill="#fbffff" fill-opacity="1"><g transform="translate(65.383795, 25.381679)"><g><path d="M 9.046875 -17.25 L 11.359375 -17.25 C 11.617188 -17.25 11.75 -17.117188 11.75 -16.859375 L 11.75 -0.390625 C 11.75 -0.128906 11.617188 0 11.359375 0 L 9.40625 0 C 9.207031 0 9.0625 -0.109375 8.96875 -0.328125 L 4.34375 -9.734375 L 4.34375 -0.390625 C 4.34375 -0.128906 4.207031 0 3.9375 0 L 1.625 0 C 1.363281 0 1.234375 -0.128906 1.234375 -0.390625 L 1.234375 -16.859375 C 1.234375 -17.117188 1.363281 -17.25 1.625 -17.25 L 3.578125 -17.25 C 3.773438 -17.25 3.921875 -17.140625 4.015625 -16.921875 L 8.65625 -7.515625 L 8.65625 -16.859375 C 8.65625 -17.117188 8.785156 -17.25 9.046875 -17.25 Z M 9.046875 -17.25 "/></g></g></g><g fill="#fbffff" fill-opacity="1"><g transform="translate(78.366199, 25.381679)"><g><path d="M 1.234375 -3.546875 L 1.234375 -13.703125 C 1.234375 -14.867188 1.535156 -15.75 2.140625 -16.34375 C 2.753906 -16.945312 3.632812 -17.25 4.78125 -17.25 L 7.546875 -17.25 C 8.691406 -17.25 9.566406 -16.945312 10.171875 -16.34375 C 10.785156 -15.75 11.09375 -14.867188 11.09375 -13.703125 L 11.09375 -11.875 C 11.09375 -11.613281 10.957031 -11.484375 10.6875 -11.484375 L 8.375 -11.484375 C 8.113281 -11.484375 7.984375 -11.613281 7.984375 -11.875 L 7.984375 -13.078125 C 7.984375 -13.734375 7.65625 -14.0625 7 -14.0625 L 5.421875 -14.0625 C 4.765625 -14.0625 4.4375 -13.734375 4.4375 -13.078125 L 4.4375 -4.171875 C 4.4375 -3.503906 4.765625 -3.171875 5.421875 -3.171875 L 7 -3.171875 C 7.65625 -3.171875 7.984375 -3.503906 7.984375 -4.171875 L 7.984375 -6.3125 L 6.703125 -6.3125 C 6.441406 -6.3125 6.3125 -6.441406 6.3125 -6.703125 L 6.3125 -9.171875 C 6.3125 -9.429688 6.441406 -9.5625 6.703125 -9.5625 L 10.6875 -9.5625 C 10.957031 -9.5625 11.09375 -9.429688 11.09375 -9.171875 L 11.09375 -3.546875 C 11.09375 -2.398438 10.785156 -1.519531 10.171875 -0.90625 C 9.566406 -0.300781 8.691406 0 7.546875 0 L 4.78125 0 C 3.632812 0 2.753906 -0.300781 2.140625 -0.90625 C 1.535156 -1.519531 1.234375 -2.398438 1.234375 -3.546875 Z M 1.234375 -3.546875 "/></g></g></g><g fill="#fbffff" fill-opacity="1"><g transform="translate(90.68347, 25.381679)"><g><path d="M 1.625 0 L 4.1875 0 C 4.445312 0 4.578125 -0.128906 4.578125 -0.390625 L 4.578125 -16.859375 C 4.578125 -17.117188 4.445312 -17.25 4.1875 -17.25 L 1.625 -17.25 C 1.363281 -17.25 1.234375 -17.117188 1.234375 -16.859375 L 1.234375 -0.390625 C 1.234375 -0.128906 1.363281 0 1.625 0 Z M 1.625 0 "/></g></g></g><g fill="#fbffff" fill-opacity="1"><g transform="translate(96.497223, 25.381679)"><g><path d="M 9.046875 -17.25 L 11.359375 -17.25 C 11.617188 -17.25 11.75 -17.117188 11.75 -16.859375 L 11.75 -0.390625 C 11.75 -0.128906 11.617188 0 11.359375 0 L 9.40625 0 C 9.207031 0 9.0625 -0.109375 8.96875 -0.328125 L 4.34375 -9.734375 L 4.34375 -0.390625 C 4.34375 -0.128906 4.207031 0 3.9375 0 L 1.625 0 C 1.363281 0 1.234375 -0.128906 1.234375 -0.390625 L 1.234375 -16.859375 C 1.234375 -17.117188 1.363281 -17.25 1.625 -17.25 L 3.578125 -17.25 C 3.773438 -17.25 3.921875 -17.140625 4.015625 -16.921875 L 8.65625 -7.515625 L 8.65625 -16.859375 C 8.65625 -17.117188 8.785156 -17.25 9.046875 -17.25 Z M 9.046875 -17.25 "/></g></g></g><g fill="#fbffff" fill-opacity="1"><g transform="translate(109.479627, 25.381679)"><g><path d="M 1.234375 -3.546875 L 1.234375 -13.703125 C 1.234375 -14.867188 1.535156 -15.75 2.140625 -16.34375 C 2.753906 -16.945312 3.632812 -17.25 4.78125 -17.25 L 7.546875 -17.25 C 8.691406 -17.25 9.566406 -16.945312 10.171875 -16.34375 C 10.785156 -15.75 11.09375 -14.867188 11.09375 -13.703125 L 11.09375 -11.875 C 11.09375 -11.613281 10.957031 -11.484375 10.6875 -11.484375 L 8.375 -11.484375 C 8.113281 -11.484375 7.984375 -11.613281 7.984375 -11.875 L 7.984375 -13.078125 C 7.984375 -13.734375 7.65625 -14.0625 7 -14.0625 L 5.421875 -14.0625 C 4.765625 -14.0625 4.4375 -13.734375 4.4375 -13.078125 L 4.4375 -4.171875 C 4.4375 -3.503906 4.765625 -3.171875 5.421875 -3.171875 L 7 -3.171875 C 7.65625 -3.171875 7.984375 -3.503906 7.984375 -4.171875 L 7.984375 -6.3125 L 6.703125 -6.3125 C 6.441406 -6.3125 6.3125 -6.441406 6.3125 -6.703125 L 6.3125 -9.171875 C 6.3125 -9.429688 6.441406 -9.5625 6.703125 -9.5625 L 10.6875 -9.5625 C 10.957031 -9.5625 11.09375 -9.429688 11.09375 -9.171875 L 11.09375 -3.546875 C 11.09375 -2.398438 10.785156 -1.519531 10.171875 -0.90625 C 9.566406 -0.300781 8.691406 0 7.546875 0 L 4.78125 0 C 3.632812 0 2.753906 -0.300781 2.140625 -0.90625 C 1.535156 -1.519531 1.234375 -2.398438 1.234375 -3.546875 Z M 1.234375 -3.546875 "/></g></g></g><g fill="#fbffff" fill-opacity="1"><g transform="translate(0.253587, 47.658745)"><g><path d="M 4.78125 -19.71875 L 7.546875 -19.71875 C 8.710938 -19.71875 9.59375 -19.414062 10.1875 -18.8125 C 10.789062 -18.207031 11.09375 -17.328125 11.09375 -16.171875 L 11.09375 -13.546875 C 11.09375 -13.285156 10.957031 -13.15625 10.6875 -13.15625 L 8.125 -13.15625 C 7.863281 -13.15625 7.734375 -13.285156 7.734375 -13.546875 L 7.734375 -15.46875 C 7.734375 -16.125 7.40625 -16.453125 6.75 -16.453125 L 5.5625 -16.453125 C 4.90625 -16.453125 4.578125 -16.125 4.578125 -15.46875 L 4.578125 -12.078125 L 10.453125 -10.15625 C 10.878906 -9.96875 11.09375 -9.660156 11.09375 -9.234375 L 11.09375 -3.546875 C 11.09375 -2.398438 10.789062 -1.519531 10.1875 -0.90625 C 9.59375 -0.300781 8.710938 0 7.546875 0 L 4.78125 0 C 3.632812 0 2.753906 -0.300781 2.140625 -0.90625 C 1.535156 -1.519531 1.234375 -2.398438 1.234375 -3.546875 L 1.234375 -6.140625 C 1.234375 -6.398438 1.363281 -6.53125 1.625 -6.53125 L 4.1875 -6.53125 C 4.445312 -6.53125 4.578125 -6.398438 4.578125 -6.140625 L 4.578125 -4.234375 C 4.578125 -3.578125 4.90625 -3.25 5.5625 -3.25 L 6.75 -3.25 C 7.40625 -3.25 7.734375 -3.578125 7.734375 -4.234375 L 7.734375 -7.515625 L 1.890625 -9.4375 C 1.453125 -9.582031 1.234375 -9.882812 1.234375 -10.34375 L 1.234375 -16.171875 C 1.234375 -17.328125 1.535156 -18.207031 2.140625 -18.8125 C 2.753906 -19.414062 3.632812 -19.71875 4.78125 -19.71875 Z M 4.78125 -19.71875 "/></g></g></g><g fill="#fbffff" fill-opacity="1"><g transform="translate(12.570858, 47.658745)"><g><path d="M 1.234375 -3.546875 L 1.234375 -13.703125 C 1.234375 -14.867188 1.535156 -15.75 2.140625 -16.34375 C 2.753906 -16.945312 3.632812 -17.25 4.78125 -17.25 L 7.546875 -17.25 C 8.710938 -17.25 9.59375 -16.945312 10.1875 -16.34375 C 10.789062 -15.75 11.09375 -14.867188 11.09375 -13.703125 L 11.09375 -3.546875 C 11.09375 -2.398438 10.789062 -1.519531 10.1875 -0.90625 C 9.59375 -0.300781 8.710938 0 7.546875 0 L 4.78125 0 C 3.632812 0 2.753906 -0.300781 2.140625 -0.90625 C 1.535156 -1.519531 1.234375 -2.398438 1.234375 -3.546875 Z M 5.421875 -3.171875 L 7 -3.171875 C 7.65625 -3.171875 7.984375 -3.503906 7.984375 -4.171875 L 7.984375 -13.078125 C 7.984375 -13.734375 7.65625 -14.0625 7 -14.0625 L 5.421875 -14.0625 C 4.765625 -14.0625 4.4375 -13.734375 4.4375 -13.078125 L 4.4375 -4.171875 C 4.4375 -3.503906 4.765625 -3.171875 5.421875 -3.171875 Z M 5.421875 -3.171875 "/></g></g></g><g fill="#fbffff" fill-opacity="1"><g transform="translate(24.888129, 47.658745)"><g><path d="M 11.53125 -17.25 L 14.78125 -17.25 C 15.113281 -17.25 15.28125 -17.082031 15.28125 -16.75 L 15.28125 -0.5 C 15.28125 -0.164062 15.113281 0 14.78125 0 L 12.5 0 C 12.164062 0 12 -0.164062 12 -0.5 L 12 -10.171875 L 11.828125 -10.171875 L 9.515625 -0.421875 C 9.429688 -0.140625 9.25 0 8.96875 0 L 7.515625 0 C 7.234375 0 7.050781 -0.140625 6.96875 -0.421875 L 4.65625 -10.171875 L 4.484375 -10.171875 L 4.484375 -0.5 C 4.484375 -0.164062 4.316406 0 3.984375 0 L 1.71875 0 C 1.394531 0 1.234375 -0.164062 1.234375 -0.5 L 1.234375 -16.75 C 1.234375 -17.082031 1.394531 -17.25 1.71875 -17.25 L 4.984375 -17.25 C 5.253906 -17.25 5.429688 -17.109375 5.515625 -16.828125 L 8.25 -5.84375 L 10.984375 -16.828125 C 11.066406 -17.109375 11.25 -17.25 11.53125 -17.25 Z M 11.53125 -17.25 "/></g></g></g><g fill="#fbffff" fill-opacity="1"><g transform="translate(41.393269, 47.658745)"><g><path d="M 11.0625 -16.859375 L 11.0625 -14.390625 C 11.0625 -14.109375 10.929688 -13.96875 10.671875 -13.96875 L 4.578125 -13.96875 L 4.578125 -10.171875 L 9.21875 -10.171875 C 9.476562 -10.171875 9.609375 -10.03125 9.609375 -9.75 L 9.609375 -7.3125 C 9.609375 -7.039062 9.476562 -6.90625 9.21875 -6.90625 L 4.578125 -6.90625 L 4.578125 -3.25 L 10.671875 -3.25 C 10.929688 -3.25 11.0625 -3.117188 11.0625 -2.859375 L 11.0625 -0.390625 C 11.0625 -0.128906 10.929688 0 10.671875 0 L 1.609375 0 C 1.359375 0 1.234375 -0.128906 1.234375 -0.390625 L 1.234375 -16.859375 C 1.234375 -17.117188 1.359375 -17.25 1.609375 -17.25 L 10.671875 -17.25 C 10.929688 -17.25 11.0625 -17.117188 11.0625 -16.859375 Z M 11.0625 -16.859375 "/></g></g></g><g fill="#fbffff" fill-opacity="1"><g transform="translate(53.685906, 47.658745)"><g><path d="M 15.171875 -17.25 L 17.5 -17.25 C 17.851562 -17.25 18.007812 -17.078125 17.96875 -16.734375 L 15.59375 -0.4375 C 15.550781 -0.144531 15.375 0 15.0625 0 L 12.390625 0 C 12.109375 0 11.929688 -0.144531 11.859375 -0.4375 L 9.578125 -10.546875 L 7.296875 -0.4375 C 7.222656 -0.144531 7.039062 0 6.75 0 L 4.046875 0 C 3.734375 0 3.550781 -0.15625 3.5 -0.46875 L 1.234375 -16.734375 C 1.179688 -17.078125 1.335938 -17.25 1.703125 -17.25 L 4.015625 -17.25 C 4.304688 -17.25 4.476562 -17.09375 4.53125 -16.78125 L 5.734375 -6.484375 L 5.859375 -6.484375 L 8.28125 -16.828125 C 8.363281 -17.109375 8.546875 -17.25 8.828125 -17.25 L 10.328125 -17.25 C 10.609375 -17.25 10.785156 -17.109375 10.859375 -16.828125 L 13.28125 -6.484375 L 13.40625 -6.484375 L 14.65625 -16.78125 C 14.707031 -17.09375 14.878906 -17.25 15.171875 -17.25 Z M 15.171875 -17.25 "/></g></g></g><g fill="#fbffff" fill-opacity="1"><g transform="translate(72.580598, 47.658745)"><g><path d="M 7.734375 -10.203125 L 7.734375 -16.859375 C 7.734375 -17.117188 7.863281 -17.25 8.125 -17.25 L 10.671875 -17.25 C 10.953125 -17.25 11.09375 -17.117188 11.09375 -16.859375 L 11.09375 -0.390625 C 11.09375 -0.128906 10.953125 0 10.671875 0 L 8.125 0 C 7.863281 0 7.734375 -0.128906 7.734375 -0.390625 L 7.734375 -6.953125 L 4.578125 -6.953125 L 4.578125 -0.390625 C 4.578125 -0.128906 4.445312 0 4.1875 0 L 1.65625 0 C 1.375 0 1.234375 -0.128906 1.234375 -0.390625 L 1.234375 -16.859375 C 1.234375 -17.117188 1.375 -17.25 1.65625 -17.25 L 4.1875 -17.25 C 4.445312 -17.25 4.578125 -17.117188 4.578125 -16.859375 L 4.578125 -10.203125 Z M 7.734375 -10.203125 "/></g></g></g><g fill="#fbffff" fill-opacity="1"><g transform="translate(84.89787, 47.658745)"><g><path d="M 11.0625 -16.859375 L 11.0625 -14.390625 C 11.0625 -14.109375 10.929688 -13.96875 10.671875 -13.96875 L 4.578125 -13.96875 L 4.578125 -10.171875 L 9.21875 -10.171875 C 9.476562 -10.171875 9.609375 -10.03125 9.609375 -9.75 L 9.609375 -7.3125 C 9.609375 -7.039062 9.476562 -6.90625 9.21875 -6.90625 L 4.578125 -6.90625 L 4.578125 -3.25 L 10.671875 -3.25 C 10.929688 -3.25 11.0625 -3.117188 11.0625 -2.859375 L 11.0625 -0.390625 C 11.0625 -0.128906 10.929688 0 10.671875 0 L 1.609375 0 C 1.359375 0 1.234375 -0.128906 1.234375 -0.390625 L 1.234375 -16.859375 C 1.234375 -17.117188 1.359375 -17.25 1.609375 -17.25 L 10.671875 -17.25 C 10.929688 -17.25 11.0625 -17.117188 11.0625 -16.859375 Z M 11.0625 -16.859375 "/></g></g></g><g fill="#fbffff" fill-opacity="1"><g transform="translate(97.190502, 47.658745)"><g><path d="M 11.09375 -13.703125 L 11.09375 -8.75 C 11.09375 -7.320312 10.628906 -6.316406 9.703125 -5.734375 L 10.984375 -0.4375 C 11.066406 -0.144531 10.953125 0 10.640625 0 L 8.234375 0 C 8.003906 0 7.863281 -0.113281 7.8125 -0.34375 L 6.625 -5.203125 L 4.4375 -5.203125 L 4.4375 -0.390625 C 4.4375 -0.128906 4.304688 0 4.046875 0 L 1.625 0 C 1.363281 0 1.234375 -0.128906 1.234375 -0.390625 L 1.234375 -16.859375 C 1.234375 -17.117188 1.363281 -17.25 1.625 -17.25 L 7.546875 -17.25 C 8.710938 -17.25 9.59375 -16.945312 10.1875 -16.34375 C 10.789062 -15.75 11.09375 -14.867188 11.09375 -13.703125 Z M 4.4375 -8.375 L 6.90625 -8.375 C 7.5625 -8.375 7.890625 -8.703125 7.890625 -9.359375 L 7.890625 -13.078125 C 7.890625 -13.734375 7.5625 -14.0625 6.90625 -14.0625 L 4.4375 -14.0625 Z M 4.4375 -8.375 "/></g></g></g><g fill="#fbffff" fill-opacity="1"><g transform="translate(109.507778, 47.658745)"><g><path d="M 11.0625 -16.859375 L 11.0625 -14.390625 C 11.0625 -14.109375 10.929688 -13.96875 10.671875 -13.96875 L 4.578125 -13.96875 L 4.578125 -10.171875 L 9.21875 -10.171875 C 9.476562 -10.171875 9.609375 -10.03125 9.609375 -9.75 L 9.609375 -7.3125 C 9.609375 -7.039062 9.476562 -6.90625 9.21875 -6.90625 L 4.578125 -6.90625 L 4.578125 -3.25 L 10.671875 -3.25 C 10.929688 -3.25 11.0625 -3.117188 11.0625 -2.859375 L 11.0625 -0.390625 C 11.0625 -0.128906 10.929688 0 10.671875 0 L 1.609375 0 C 1.359375 0 1.234375 -0.128906 1.234375 -0.390625 L 1.234375 -16.859375 C 1.234375 -17.117188 1.359375 -17.25 1.609375 -17.25 L 10.671875 -17.25 C 10.929688 -17.25 11.0625 -17.117188 11.0625 -16.859375 Z M 11.0625 -16.859375 "/></g></g></g></g></g></svg>